<svg id="visual" viewBox="0 0 900 600" width="900" height="600" xmlns="http://www.w3.org/2000/svg" xmlns:xlink="http://www.w3.org/1999/xlink" version="1.1"><path d="M0 7L82 25L164 43L245 73L327 97L409 13L491 25L573 91L655 91L736 67L818 91L900 133L900 0L818 0L736 0L655 0L573 0L491 0L409 0L327 0L245 0L164 0L82 0L0 0Z" fill="#00cc8e"></path><path d="M0 61L82 25L164 55L245 145L327 157L409 55L491 43L573 121L655 139L736 127L818 97L900 151L900 131L818 89L736 65L655 89L573 89L491 23L409 11L327 95L245 71L164 41L82 23L0 5Z" fill="#00c18c"></path><path d="M0 91L82 73L164 61L245 193L327 175L409 163L491 115L573 247L655 265L736 199L818 115L900 289L900 149L818 95L736 125L655 137L573 119L491 41L409 53L327 155L245 143L164 53L82 23L0 59Z" fill="#00b789"></path><path d="M0 457L82 277L164 193L245 223L327 373L409 289L491 271L573 259L655 313L736 253L818 337L900 301L900 287L818 113L736 197L655 263L573 245L491 113L409 161L327 173L245 191L164 59L82 71L0 89Z" fill="#00ac86"></path><path d="M0 511L82 469L164 427L245 457L327 451L409 433L491 427L573 523L655 499L736 415L818 439L900 463L900 299L818 335L736 251L655 311L573 257L491 269L409 287L327 371L245 221L164 191L82 275L0 455Z" fill="#00a282"></path><path d="M0 517L82 487L164 439L245 535L327 475L409 499L491 463L573 565L655 553L736 427L818 469L900 475L900 461L818 437L736 413L655 497L573 521L491 425L409 431L327 449L245 455L164 425L82 467L0 509Z" fill="#00977e"></path><path d="M0 541L82 541L164 517L245 577L327 517L409 541L491 583L573 571L655 601L736 511L818 583L900 547L900 473L818 467L736 425L655 551L573 563L491 461L409 497L327 473L245 533L164 437L82 485L0 515Z" fill="#008d79"></path><path d="M0 601L82 601L164 601L245 601L327 601L409 601L491 601L573 601L655 601L736 601L818 601L900 601L900 545L818 581L736 509L655 599L573 569L491 581L409 539L327 515L245 575L164 515L82 539L0 539Z" fill="#038373"></path></svg>